<svg version="1.1" id="Modo_de_aislamiento" xmlns="http://www.w3.org/2000/svg" x="0" y="0" viewBox="0 0 1920 666.6" xml:space="preserve"><style>.st0{fill:#002d46}.st2{fill:#73bc36}</style><path class="st0" d="M377.9 142.3c-85.5-85.5-224.6-85.5-310 0s-85.4 224.6 0 310.1c76.1 76.1 194.6 84.2 280.1 24.8 1.8 8.5 5.9 16.6 12.5 23.2L485 624.9c18.1 18.1 47.4 18.1 65.5 0s18.1-47.4 0-65.5L425.9 434.9c-6.6-6.6-14.7-10.7-23.2-12.5 59.5-85.4 51.3-203.9-24.8-280.1zm-39.3 270.8c-63.8 63.8-167.7 63.8-231.4 0-63.8-63.8-63.8-167.6 0-231.4 63.8-63.8 167.6-63.8 231.4 0 63.8 63.7 63.8 167.6 0 231.4z"/><g id="irkoZO.tif"><path d="M135 303c3.8-8.7 7.5-17.4 11.3-26.1 2.5-5.8 5-11.6 7.6-17.3 3.1-6.8 8.3-11.1 15.6-12.9 1.3-.3 2.8-.4 4.1-.4 33.2 0 66.4-.1 99.6 0 9.2 0 15.9 4.7 19.7 13 5 11 9.7 22.2 14.6 33.4 1.5 3.4 3 6.9 4.4 10.3-2.7.4-5.3.5-8 .8-6.4.7-12.8 1.2-19.3 1.8-6.7.6-13.3 1-20 1.4-8.2.4-16.4.9-24.6 1.1-13.9.2-27.9.3-41.8-.3-7-.3-14-.8-21-1.1-2.8-.1-5.7-.3-8.5-.6-7.4-.6-14.8-1.2-22.2-1.9-3.9-.4-7.7-.8-11.5-1.2z" fill="#75c2fc"/><path class="st0" d="M223.5 384.3h92.2c2.5 0 4.6-.7 5.7-3.2.4-.8.4-1.6.4-2.5v-10c0-1.7 0-1.7-1.5-.9-11.7 6.1-25.6 1.4-31.1-10.6-5.8-12.8 2-28.2 15.7-31 11.7-2.4 22.7 4 26.3 15.4.7 2.4.9 4.8.9 7.3v29.4c0 7-3 12.1-9.4 15.1-.9.4-1 .9-1 1.7v17.7c0 1.5-.2 2.9-1.1 4.1-1.1 1.4-2.6 1.9-4.3 1.9h-34c-3.5 0-5.4-2.2-5.5-6 0-5.5-.1-11.1 0-16.6 0-1.3-.4-1.6-1.7-1.6H171.5c-1.4 0-1.7.4-1.7 1.7.1 5.4 0 10.9 0 16.3 0 1.3-.1 2.5-.8 3.6-1.1 1.8-2.7 2.5-4.7 2.5h-34c-3.5 0-5.4-2.1-5.4-5.7v-18c0-1-.3-1.5-1.2-1.9-6-2.9-9.1-7.7-9.2-14.4-.1-10.1-.1-20.3 0-30.4.1-9.7 4.6-16.8 13.5-21 11.7-5.5 26.5 1.2 30.3 13.5 3.8 12.4-2.5 24.6-14.8 28.5-5.9 1.9-11.6 1.2-17.1-1.7-1.4-.8-1.4-.8-1.4.9v9.8c0 3.9 2 5.9 5.9 5.9h76.8c5.4.2 10.6.2 15.8.2zm98.2-36.3c0-6.7-5.3-12-12-12-6.8 0-12.1 5.3-12 12.1 0 6.7 5.3 11.9 12 12 6.8-.1 12-5.3 12-12.1zm-196.6 0c0 6.8 5.1 12 11.9 12.1 6.8 0 12.1-5.2 12.2-12 0-6.7-5.3-12.1-11.9-12.1-6.9-.1-12.2 5.2-12.2 12zm22.3 46.6h-10.9c-.8 0-1.2.2-1.2 1.1v11.7c0 .9.4 1.1 1.2 1.1h21.7c1 0 1.3-.4 1.3-1.3v-11.3c0-1-.3-1.3-1.3-1.3h-10.8zm152.2 0h-11c-1 0-1.3.3-1.3 1.3.1 3.8 0 7.5 0 11.3 0 .9.2 1.3 1.3 1.3h21.7c.9 0 1.2-.3 1.2-1.2v-11.4c0-1-.4-1.2-1.3-1.2-3.6-.1-7.1-.1-10.6-.1zM135 303c3.8.4 7.6.9 11.5 1.2 7.4.7 14.8 1.3 22.2 1.9 2.8.2 5.6.5 8.5.6 7 .3 14 .7 21 1.1 13.9.7 27.9.6 41.8.3 8.2-.1 16.4-.6 24.6-1.1 6.7-.4 13.3-.8 20-1.4 6.4-.6 12.9-1 19.3-1.8 2.7-.3 5.3-.5 8-.8 4.7-.3 9.3-.9 14-1.5 2.8-.3 5.3 1 6 3.4.8 2.6-.3 5.2-2.6 6.4-.8.4-1.8.6-2.7.7-12.3 1.4-24.7 2.7-37 3.7-9.8.8-19.5 1.5-29.3 2-15.9.9-31.8 1.4-47.8 1-7.8-.2-15.5-.4-23.3-.8-11.8-.6-23.6-1.4-35.3-2.5-11.1-1-22.3-2.2-33.4-3.3-2.5-.3-4.7-1.1-5.5-3.8-1.2-3.8 1.8-7.2 5.9-6.7 4.5.5 9 1 13.4 1.5.2-.1.4-.1.7-.1z"/><path class="st0" d="M223.4 356.6h36.9c1.2 0 2.3.1 3.4.6 2.1 1 3.1 3.1 2.7 5.6-.3 2-1.9 3.7-4 4.1-.8.1-1.6.2-2.4.2h-73.3c-1.1 0-2.2-.1-3.3-.4-2.1-.8-3.3-2.8-3.2-5.2.1-2.2 1.6-3.9 3.7-4.5.9-.2 1.7-.3 2.6-.3 12.4-.1 24.6-.1 36.9-.1z"/></g><path class="st0" d="M513 204.1c-10.2-5.4-18.2-12.9-24-22.6-5.8-9.6-8.7-20.6-8.7-32.8 0-12.2 2.9-23.1 8.7-32.8 5.8-9.6 13.8-17.2 24-22.6 10.2-5.4 21.7-8.1 34.4-8.1 11.2 0 21.2 2 30.2 5.9 9 4 16.4 9.7 22.3 17.1l-22 19.9c-7.9-9.5-17.5-14.3-28.8-14.3-6.6 0-12.5 1.5-17.7 4.4-5.2 2.9-9.2 7-12 12.3-2.9 5.3-4.3 11.4-4.3 18.2 0 6.9 1.4 12.9 4.3 18.2 2.8 5.3 6.9 9.4 12 12.3 5.2 2.9 11.1 4.4 17.7 4.4 11.3 0 20.9-4.8 28.8-14.3l22 19.9c-5.9 7.4-13.4 13.1-22.3 17.1-9 4-19 5.9-30.2 5.9-12.7 0-24.2-2.7-34.4-8.1zm118.3 1c-8.1-4.2-14.5-10-19.1-17.4-4.6-7.4-6.9-15.9-6.9-25.3 0-9.3 2.3-17.7 6.9-25.1 4.6-7.4 10.9-13.2 19-17.4 8.1-4.1 17.2-6.2 27.5-6.2 10.2 0 19.4 2.1 27.6 6.2 8.1 4.1 14.5 9.9 19 17.3s6.8 15.8 6.8 25.2c0 9.4-2.3 17.8-6.8 25.3-4.5 7.4-10.9 13.3-19 17.4-8.1 4.2-17.3 6.3-27.6 6.3-10.1 0-19.2-2.1-27.4-6.3zM673 179c3.7-4 5.6-9.6 5.6-16.7 0-7-1.9-12.4-5.6-16.4-3.7-4-8.5-5.9-14.3-5.9-5.8 0-10.6 2-14.3 5.9-3.7 4-5.6 9.4-5.6 16.4 0 7.1 1.9 12.6 5.6 16.7 3.7 4 8.5 6 14.3 6 5.8 0 10.6-2 14.3-6zm205.9-54.8c6.9 7 10.4 17.5 10.4 31.6v54.1h-33.1v-48.7c0-6.6-1.3-11.5-3.7-14.6-2.5-3.1-6-4.7-10.6-4.7-5 0-9 1.7-12 5.2s-4.5 8.8-4.5 15.9v46.9h-33.1v-48.7c0-12.9-4.8-19.4-14.3-19.4-5.1 0-9.2 1.7-12.2 5.2s-4.5 8.8-4.5 15.9v46.9h-33.1v-94.5h31.6v9.9c3.5-3.8 7.6-6.7 12.5-8.6 4.8-1.9 10.1-2.9 15.8-2.9 6.6 0 12.6 1.2 17.8 3.7 5.2 2.4 9.5 6.2 12.7 11.2 3.7-4.8 8.4-8.4 14.1-11 5.7-2.6 11.9-3.8 18.7-3.8 11.3-.1 20.6 3.4 27.5 10.4zm114.7-4.5c7 4 12.6 9.7 16.7 17.1 4.1 7.4 6.2 16 6.2 25.7 0 9.8-2.1 18.3-6.2 25.7-4.1 7.4-9.7 13.1-16.7 17.1-7 4-14.9 6-23.5 6-11 0-19.8-3.3-26.3-9.9v42.2h-33.1V115.3h31.6v9.4c6.2-7.3 15.5-11 27.9-11 8.6 0 16.4 2 23.4 6zM977.5 179c3.7-4 5.6-9.5 5.6-16.5s-1.9-12.5-5.6-16.5c-3.7-4-8.5-6-14.3-6-5.8 0-10.6 2-14.3 6-3.7 4-5.6 9.5-5.6 16.5s1.9 12.5 5.6 16.5c3.7 4 8.5 6 14.3 6 5.8 0 10.6-2 14.3-6zm129-54.6c8.3 7.2 12.4 18.1 12.4 32.9v52.5H1088v-12.2c-4.8 9.2-14.1 13.8-27.9 13.8-7.3 0-13.7-1.3-19-3.8-5.3-2.6-9.4-6-12.1-10.4-2.7-4.4-4.1-9.3-4.1-14.9 0-9 3.4-15.9 10.3-20.8s17.4-7.4 31.7-7.4h18.8c-.6-10-7.3-15-20.1-15-4.5 0-9.1.7-13.8 2.2-4.7 1.5-8.6 3.5-11.9 6l-11.2-22.5c5.2-3.5 11.6-6.2 19.1-8.1s15-2.9 22.6-2.9c15.9-.1 27.9 3.5 36.1 10.6zm-27 63.3c2.9-1.9 5-4.6 6.3-8.2v-8.2h-14.3c-9.7 0-14.5 3.2-14.5 9.6 0 2.9 1.1 5.2 3.3 7 2.2 1.7 5.2 2.6 9.1 2.6s7.2-1 10.1-2.8zm105.6-70.8c5.4-2.1 11.6-3.2 18.6-3.2v29.8c-3-.3-5.5-.5-7.5-.5-7.1 0-12.6 1.9-16.7 5.8-4 3.8-6 9.7-6 17.6v43.4h-33.1v-94.5h31.6v11.3c3.3-4.3 7.7-7.5 13.1-9.7zm127.9 54h-68.7c1.4 4.9 4.1 8.6 8.1 11.2 4 2.6 9 3.9 15.1 3.9 4.5 0 8.5-.6 11.8-1.9 3.3-1.3 6.7-3.4 10-6.3l17.4 18.1c-9.2 10.2-22.6 15.3-40.3 15.3-11 0-20.8-2.1-29.1-6.3-8.4-4.2-14.9-10-19.4-17.4-4.6-7.4-6.9-15.9-6.9-25.3 0-9.3 2.2-17.6 6.7-25 4.5-7.4 10.7-13.2 18.6-17.4 7.9-4.2 16.8-6.3 26.7-6.3 9.4 0 18 1.9 25.6 5.8 7.7 3.9 13.7 9.5 18.2 16.9 4.5 7.4 6.7 16.1 6.7 26.2 0 .5-.1 3.3-.5 8.5zm-62.7-29.3c-3.4 2.9-5.6 6.9-6.5 11.9h38.7c-.9-5-3.1-9-6.5-11.9-3.4-2.9-7.7-4.4-12.8-4.4-5.2.1-9.4 1.5-12.9 4.4z"/><path class="st2" d="M584.9 335h-51.6l-9.6 23.7h-35.2l53.9-122.1h34l54.1 122.1h-35.9l-9.7-23.7zm-10.1-25.5l-15.7-39.1-15.7 39.1h31.4zm162-45.3v94.5h-31.6v-10.1c-3.5 3.8-7.7 6.7-12.6 8.7-4.9 2-10.1 3-15.5 3-12.2 0-21.9-3.6-29.2-10.8-7.3-7.2-10.9-18-10.9-32.4v-52.8h33.1v47.4c0 7.1 1.3 12.3 4 15.5 2.7 3.3 6.6 4.9 11.7 4.9 5.2 0 9.5-1.8 12.8-5.5 3.3-3.7 5-9.3 5-16.8v-45.5h33.2zm87 90.6c-2.8 1.7-6.2 3.1-10.2 4-4 .9-8.3 1.4-12.8 1.4-12.3 0-21.8-3-28.4-9.1-6.6-6-9.9-15.1-9.9-27v-31.7h-13.8v-24.8h13.8V243h33.1v24.6h21.6v24.8h-21.6v31.4c0 3.4.9 6 2.7 7.9 1.8 1.9 4.2 2.9 7.2 2.9 3.8 0 7.2-1 10.1-3l8.2 23.2zm30.6-.8c-8.1-4.2-14.5-10-19.1-17.4-4.6-7.4-6.9-15.9-6.9-25.3 0-9.3 2.3-17.7 6.9-25.1 4.6-7.4 10.9-13.2 19-17.4 8.1-4.1 17.2-6.2 27.5-6.2 10.2 0 19.4 2.1 27.6 6.2 8.1 4.1 14.5 9.9 19 17.3s6.8 15.8 6.8 25.2c0 9.4-2.3 17.8-6.8 25.3-4.5 7.4-10.9 13.3-19 17.4-8.1 4.2-17.3 6.3-27.6 6.3-10.2-.1-19.3-2.2-27.4-6.3zm41.6-26.1c3.7-4 5.6-9.6 5.6-16.7 0-7-1.9-12.4-5.6-16.4-3.7-4-8.5-5.9-14.3-5.9-5.8 0-10.6 2-14.3 5.9-3.7 4-5.6 9.4-5.6 16.4 0 7.1 1.9 12.6 5.6 16.7 3.7 4 8.5 6 14.3 6 5.9 0 10.6-2 14.3-6zm107.8-91.3h34.5v122.1h-34.5V236.6zm148 36.4c7.2 7 10.7 17.5 10.7 31.6v54.1h-33.1V310c0-12.9-5.2-19.4-15.5-19.4-5.7 0-10.3 1.9-13.7 5.6-3.4 3.7-5.1 9.3-5.1 16.7v45.7H1062v-94.5h31.6v10.3c3.7-3.8 8.1-6.8 13.3-8.8 5.1-2 10.7-3.1 16.7-3.1 11.6.1 21 3.6 28.2 10.5zm43 84.5c-7.7-1.8-13.8-4.2-18.5-7.1l9.9-22.7c4.3 2.7 9.4 4.8 15.3 6.4 5.9 1.6 11.8 2.4 17.6 2.4 5.3 0 9.2-.6 11.4-1.7 2.3-1.1 3.4-2.7 3.4-4.8 0-2.1-1.4-3.6-4.1-4.4-2.7-.9-7.1-1.7-13-2.5-7.6-.9-14-2.2-19.3-3.7-5.3-1.5-9.9-4.3-13.7-8.4-3.8-4.1-5.8-9.8-5.8-17.1 0-6 1.8-11.4 5.4-16.1 3.6-4.7 8.9-8.4 15.8-11.2 6.9-2.7 15.2-4.1 24.9-4.1 6.9 0 13.7.7 20.4 2.1 6.7 1.4 12.4 3.4 16.9 5.9l-9.9 22.5c-8.4-4.6-17.4-7-27.2-7-5.2 0-9.1.6-11.5 1.8s-3.7 2.8-3.7 4.8c0 2.2 1.3 3.7 4 4.6 2.7.9 7.1 1.8 13.3 2.7 7.8 1.2 14.2 2.5 19.4 4 5.1 1.5 9.6 4.3 13.3 8.3 3.8 4 5.7 9.6 5.7 16.8 0 5.9-1.8 11.2-5.4 16-3.6 4.7-8.9 8.4-16 11.1-7 2.7-15.5 4-25.4 4-7.8.1-15.6-.8-23.2-2.6zm184.3-93.3v94.5h-31.6v-10.1c-3.5 3.8-7.7 6.7-12.6 8.7-4.9 2-10.1 3-15.5 3-12.2 0-21.9-3.6-29.2-10.8-7.3-7.2-10.9-18-10.9-32.4v-52.8h33.1v47.4c0 7.1 1.3 12.3 4 15.5 2.7 3.3 6.6 4.9 11.7 4.9 5.2 0 9.5-1.8 12.8-5.5 3.3-3.7 5-9.3 5-16.8v-45.5h33.2zm66.5 1.6c5.4-2.1 11.6-3.2 18.6-3.2v29.8c-3-.3-5.5-.5-7.5-.5-7.1 0-12.6 1.9-16.7 5.8-4 3.8-6 9.7-6 17.6v43.4h-33.1v-94.5h31.6v11.3c3.3-4.3 7.7-7.5 13.1-9.7zm108.2 7.5c8.3 7.2 12.4 18.1 12.4 32.9v52.5h-30.9v-12.2c-4.8 9.2-14.1 13.8-27.9 13.8-7.3 0-13.7-1.3-19-3.8-5.3-2.6-9.4-6-12.1-10.4-2.7-4.4-4.1-9.3-4.1-14.9 0-9 3.4-15.9 10.3-20.8s17.4-7.4 31.7-7.4h18.8c-.6-10-7.3-15-20.1-15-4.5 0-9.1.7-13.8 2.2-4.7 1.5-8.6 3.5-11.9 6l-11.2-22.5c5.2-3.5 11.6-6.2 19.1-8.1s15-2.9 22.6-2.9c15.9-.1 27.9 3.5 36.1 10.6zm-27 63.2c2.9-1.9 5-4.6 6.3-8.2v-8.2h-14.3c-9.7 0-14.5 3.2-14.5 9.6 0 2.9 1.1 5.2 3.3 7 2.2 1.7 5.2 2.6 9.1 2.6s7.2-.9 10.1-2.8zm150.8-63.5c7.2 7 10.7 17.5 10.7 31.6v54.1h-33.1V310c0-12.9-5.2-19.4-15.5-19.4-5.7 0-10.3 1.9-13.7 5.6-3.4 3.7-5.1 9.3-5.1 16.7v45.7h-33.1v-94.5h31.6v10.3c3.7-3.8 8.1-6.8 13.3-8.8 5.1-2 10.7-3.1 16.7-3.1 11.6.1 21 3.6 28.2 10.5zm53.6 81c-8.3-4.2-14.7-10-19.3-17.4-4.6-7.4-6.9-15.9-6.9-25.3s2.3-17.8 6.9-25.2c4.6-7.4 11-13.1 19.3-17.3 8.3-4.1 17.6-6.2 28.1-6.2 10.7 0 19.9 2.3 27.7 6.9 7.8 4.6 13.3 11 16.6 19.1l-25.6 13.1c-4.3-8.5-10.6-12.7-18.8-12.7-5.9 0-10.8 2-14.7 5.9-3.9 4-5.8 9.4-5.8 16.4 0 7.1 1.9 12.6 5.8 16.7 3.9 4 8.8 6 14.7 6 8.3 0 14.5-4.2 18.8-12.7l25.6 13.1c-3.3 8.1-8.8 14.5-16.6 19.1-7.8 4.6-17 6.9-27.7 6.9-10.5-.2-19.9-2.3-28.1-6.4zm180.5-34.2H1843c1.4 4.9 4.1 8.6 8.1 11.2 4 2.6 9 3.9 15.1 3.9 4.5 0 8.5-.6 11.8-1.9 3.3-1.3 6.7-3.4 10-6.3l17.4 18.1c-9.2 10.2-22.6 15.3-40.3 15.3-11 0-20.8-2.1-29.1-6.3-8.4-4.2-14.9-10-19.4-17.4-4.6-7.4-6.9-15.9-6.9-25.3 0-9.3 2.2-17.6 6.7-25 4.5-7.4 10.7-13.2 18.6-17.4 7.9-4.2 16.8-6.3 26.7-6.3 9.4 0 18 1.9 25.6 5.8 7.7 3.9 13.7 9.5 18.2 16.9 4.5 7.4 6.7 16.1 6.7 26.2 0 .5-.2 3.2-.5 8.5zm-62.7-29.3c-3.4 2.9-5.6 6.9-6.5 11.9h38.7c-.9-5-3.1-9-6.5-11.9-3.4-2.9-7.7-4.4-12.8-4.4-5.2 0-9.5 1.5-12.9 4.4z"/><path class="st0" d="M687.8 521.7c-4.1 5-9 8.8-14.9 11.4-5.9 2.6-12.3 3.9-19.3 3.9-6.7 0-12.8-.9-18.3-2.6-5.5-1.7-11-4.6-16.5-8.6s-11.7-9.6-18.6-16.8c-10.6-1.7-20-5.5-28.3-11.3-8.3-5.8-14.7-13.1-19.3-22-4.6-8.8-6.9-18.5-6.9-29.1 0-12.1 2.9-23 8.8-32.6 5.9-9.6 14-17.2 24.2-22.7 10.3-5.5 21.9-8.2 34.8-8.2 12.9 0 24.5 2.7 34.8 8.2 10.3 5.5 18.4 13 24.2 22.7 5.9 9.7 8.8 20.5 8.8 32.6 0 13.7-3.7 25.8-11.2 36.4-7.5 10.5-17.6 18-30.3 22.6 2.3 2.6 4.6 4.4 6.9 5.4s4.7 1.6 7.4 1.6c6.9 0 13-2.9 18.5-8.5l15.2 17.6zm-102.7-57c2.9 5.3 6.9 9.4 11.9 12.3 5 2.9 10.6 4.4 16.7 4.4 6.2 0 11.7-1.5 16.7-4.4 5-2.9 9-7 11.9-12.3 2.9-5.3 4.4-11.4 4.4-18.2 0-6.9-1.5-12.9-4.4-18.2-2.9-5.3-6.9-9.4-11.9-12.3-5-2.9-10.6-4.4-16.7-4.4-6.2 0-11.7 1.5-16.7 4.4-5 2.9-9 7-11.9 12.3-2.9 5.3-4.4 11.4-4.4 18.2 0 6.9 1.5 12.9 4.4 18.2zM798 413v94.5h-31.6v-10.1c-3.5 3.8-7.7 6.7-12.6 8.7-4.9 2-10.1 3-15.5 3-12.2 0-21.9-3.6-29.2-10.8-7.3-7.2-10.9-18-10.9-32.4V413h33.1v47.4c0 7.1 1.3 12.3 4 15.5 2.7 3.3 6.6 4.9 11.7 4.9 5.2 0 9.5-1.8 12.8-5.5 3.3-3.7 5-9.3 5-16.8V413H798zm41.9 89.8c-8.1-4.2-14.5-10-19.1-17.4-4.6-7.4-6.9-15.9-6.9-25.3 0-9.3 2.3-17.7 6.9-25.1 4.6-7.4 10.9-13.2 19-17.4 8.1-4.1 17.2-6.2 27.5-6.2 10.2 0 19.4 2.1 27.6 6.2 8.1 4.1 14.5 9.9 19 17.3s6.8 15.8 6.8 25.2c0 9.4-2.3 17.8-6.8 25.3-4.5 7.4-10.9 13.3-19 17.4-8.1 4.2-17.3 6.3-27.6 6.3-10.1 0-19.3-2.1-27.4-6.3zm41.7-26c3.7-4 5.6-9.6 5.6-16.7 0-7-1.9-12.4-5.6-16.4-3.7-4-8.5-5.9-14.3-5.9-5.8 0-10.6 2-14.3 5.9-3.7 4-5.6 9.4-5.6 16.4 0 7.1 1.9 12.6 5.6 16.7 3.7 4 8.5 6 14.3 6 5.8 0 10.5-2 14.3-6zm120.1 26.9c-2.8 1.7-6.2 3.1-10.2 4s-8.3 1.4-12.8 1.4c-12.3 0-21.8-3-28.4-9.1-6.6-6-9.9-15.1-9.9-27v-31.7h-13.8v-24.8h13.8v-24.6h33.1v24.6h21.6v24.8h-21.6v31.4c0 3.4.9 6 2.7 7.9 1.8 1.9 4.2 2.9 7.2 2.9 3.8 0 7.2-1 10.1-3l8.2 23.2zm106.6-35h-68.7c1.4 4.9 4.1 8.6 8.1 11.2 4 2.6 9 3.9 15.1 3.9 4.5 0 8.5-.6 11.8-1.9 3.3-1.3 6.7-3.4 10-6.3l17.4 18.1c-9.2 10.2-22.6 15.3-40.3 15.3-11 0-20.8-2.1-29.1-6.3s-14.9-10-19.4-17.4c-4.6-7.4-6.9-15.9-6.9-25.3 0-9.3 2.2-17.6 6.7-25 4.5-7.4 10.7-13.2 18.6-17.4 7.9-4.2 16.8-6.3 26.7-6.3 9.4 0 18 1.9 25.6 5.8 7.7 3.9 13.7 9.5 18.2 16.9 4.5 7.4 6.7 16.1 6.7 26.2 0 .5-.2 3.2-.5 8.5zm-62.7-29.3c-3.4 2.9-5.6 6.9-6.5 11.9h38.7c-.9-5-3.1-9-6.5-11.9-3.4-2.9-7.7-4.4-12.8-4.4-5.2 0-9.5 1.5-12.9 4.4zm90.1 67c-7.7-1.8-13.8-4.2-18.5-7.1l9.9-22.7c4.3 2.7 9.4 4.8 15.3 6.4 5.9 1.6 11.8 2.4 17.6 2.4 5.3 0 9.2-.5 11.4-1.7 2.3-1.1 3.4-2.7 3.4-4.8 0-2.1-1.4-3.6-4.1-4.4-2.7-.9-7.1-1.7-13-2.5-7.6-.9-14-2.2-19.3-3.7-5.3-1.5-9.9-4.3-13.7-8.4-3.8-4.1-5.8-9.8-5.8-17.1 0-6 1.8-11.4 5.4-16.1 3.6-4.7 8.9-8.4 15.8-11.2 6.9-2.7 15.2-4.1 24.9-4.1 6.9 0 13.7.7 20.4 2.1 6.7 1.4 12.4 3.4 16.9 5.9l-9.9 22.5c-8.4-4.6-17.4-7-27.2-7-5.2 0-9.1.6-11.5 1.8-2.4 1.2-3.7 2.8-3.7 4.8 0 2.2 1.3 3.7 4 4.6 2.7.9 7.1 1.8 13.3 2.7 7.8 1.2 14.2 2.5 19.4 4 5.1 1.5 9.6 4.3 13.3 8.3 3.8 4 5.7 9.6 5.7 16.8 0 5.9-1.8 11.2-5.4 16-3.6 4.7-8.9 8.4-16 11.1-7 2.7-15.5 4-25.4 4-7.8.1-15.6-.8-23.2-2.6zm84.7-2.9c-3.8-3.7-5.8-8.4-5.8-14.1 0-5.8 1.9-10.5 5.7-14.1 3.8-3.6 8.5-5.4 14.2-5.4 5.8 0 10.6 1.8 14.3 5.4 3.7 3.6 5.6 8.3 5.6 14.1 0 5.7-1.9 10.4-5.7 14.1-3.8 3.7-8.5 5.6-14.2 5.6-5.5 0-10.3-1.8-14.1-5.6zm69.8-.7c-8.3-4.2-14.7-10-19.3-17.4-4.6-7.4-6.9-15.9-6.9-25.3s2.3-17.8 6.9-25.2c4.6-7.4 11-13.1 19.3-17.3 8.3-4.1 17.6-6.2 28.1-6.2 10.7 0 19.9 2.3 27.7 6.9 7.8 4.6 13.3 11 16.6 19.1l-25.6 13.1c-4.3-8.5-10.6-12.7-18.8-12.7-5.9 0-10.8 2-14.7 5.9-3.9 4-5.8 9.4-5.8 16.4 0 7.1 1.9 12.6 5.8 16.7 3.9 4 8.8 6 14.7 6 8.3 0 14.5-4.2 18.8-12.7l25.6 13.1c-3.3 8.1-8.8 14.5-16.6 19.1-7.8 4.6-17 6.9-27.7 6.9-10.5-.1-19.9-2.2-28.1-6.4zm104.4 0c-8.1-4.2-14.5-10-19.1-17.4-4.6-7.4-6.9-15.9-6.9-25.3 0-9.3 2.3-17.7 6.9-25.1 4.6-7.4 10.9-13.2 19-17.4 8.1-4.1 17.2-6.2 27.5-6.2 10.2 0 19.4 2.1 27.6 6.2 8.1 4.1 14.5 9.9 19 17.3s6.8 15.8 6.8 25.2c0 9.4-2.3 17.8-6.8 25.3-4.5 7.4-10.9 13.3-19 17.4-8.1 4.2-17.3 6.3-27.6 6.3-10.1 0-19.2-2.1-27.4-6.3zm41.7-26c3.7-4 5.6-9.6 5.6-16.7 0-7-1.9-12.4-5.6-16.4-3.7-4-8.5-5.9-14.3-5.9-5.8 0-10.6 2-14.3 5.9-3.7 4-5.6 9.4-5.6 16.4 0 7.1 1.9 12.6 5.6 16.7 3.7 4 8.5 6 14.3 6 5.8 0 10.6-2 14.3-6zm205.9-54.9c6.9 7 10.4 17.5 10.4 31.6v54.1h-33.1v-48.7c0-6.6-1.3-11.5-3.7-14.6-2.5-3.1-6-4.7-10.6-4.7-5 0-9 1.7-12 5.2s-4.5 8.8-4.5 15.9v46.9h-33.1v-48.7c0-12.9-4.8-19.4-14.3-19.4-5.1 0-9.2 1.7-12.2 5.2s-4.5 8.8-4.5 15.9v46.9h-33.1V413h31.6v9.9c3.5-3.8 7.6-6.7 12.5-8.6 4.8-1.9 10.1-2.9 15.8-2.9 6.6 0 12.6 1.2 17.8 3.7 5.2 2.4 9.5 6.2 12.7 11.2 3.7-4.8 8.4-8.4 14.1-11 5.7-2.6 11.9-3.8 18.7-3.8 11.3 0 20.6 3.4 27.5 10.4z"/><path class="st2" d="M305.1 56l-79-23.7c-1.1-.3-2.3-.3-3.4 0l-79 23.7c-2.5.7-4.2 3-4.2 5.7v87c0 11.3 4.6 22.9 13.6 34.4 6.9 8.8 16.4 17.6 28.4 26.3 20 14.5 39.7 23.4 40.6 23.8.8.3 1.6.5 2.4.5s1.6-.2 2.4-.5c.8-.4 20.5-9.3 40.6-23.8 11.9-8.6 21.5-17.5 28.4-26.3 9-11.5 13.6-23.1 13.6-34.4v-87c-.2-2.6-1.9-4.9-4.4-5.7z"/><path class="st0" d="M257 153.6c0-18-14.3-33.1-33-33.3-7.6-.1-14.5-5.4-16-12.9-1.9-10 6-19 15.6-19 7.2 0 13.4 5 15.3 11.7.7 2.5 3 4.2 5.7 4.2h4.4c4.2 0 7.2-3.9 6.2-8-2.8-11.6-11.8-20.8-23.6-23.8 0 0-.1 0-.1-.1v-8c0-2.3-1.9-4.2-4.2-4.2H220c-2.9 0-5.2 2.3-5.2 5.2v7.1s0 .1-.1.1c-13.7 3.6-24.6 16.7-24.6 31.8 0 18 14.3 33.1 33 33.3 7.6.1 14.5 5.4 16 12.9 1.9 10-6 19-15.6 19-6.9 0-12.9-4.6-15.1-10.8-1.1-3.1-4.2-5.2-7.5-5.2h-1.8c-4.7 0-8.2 4.5-7 9 3.1 11.1 11.8 20 23.3 22.9 0 0 .1 0 .1.1v7.1c0 2.8 2.3 5.1 5.1 5.1h6.4c2.8 0 5.1-2.3 5.1-5.1v-7.1s0-.1.1-.1c14-4.5 24.8-16.8 24.8-31.9z"/></svg>