<svg xmlns="http://www.w3.org/2000/svg" viewBox="0 0 647.1 257.3"><style>.st3{fill:#263238}.st4{fill:#fafafa}.st5{fill:#e0e0e0}.st8{fill:#fff}.st9{fill:#455a64}</style><g id="Car"><ellipse cx="324.2" cy="243.2" rx="320.4" ry="13.1" fill="#b0cbf7"/><path transform="rotate(-180 333.162 154.78)" fill="#e8505b" d="M55.1 114.1h556.2v81.4H55.1z"/><path transform="rotate(-180 333.162 154.78)" fill="#45689b" d="M55.1 114.1h556.2v81.4H55.1z"/><ellipse class="st3" cx="536.5" cy="194.9" rx="53.6" ry="53.5"/><path class="st3" d="M590.2 194v.1c.4 29.5-23.2 53.8-52.9 54.3-29.6.4-54-23.2-54.4-52.7v-.1l107.3-1.6z"/><path class="st4" d="M574.2 194.4c.3 20.7-16.3 37.8-37.1 38.1-20.8.3-37.9-16.3-38.2-37-.3-20.7 16.3-37.8 37.1-38.1 20.8-.3 37.9 16.3 38.2 37z"/><path class="st5" d="M536 157.4c20.8-.3 37.9 16.3 38.2 37l-75.3 1.1c-.3-20.8 16.3-37.8 37.1-38.1z"/><path class="st3" d="M559.5 194.6c.2 12.6-9.9 23-22.6 23.2-12.7.2-23.1-9.9-23.3-22.5-.2-12.6 9.9-23 22.6-23.2 12.7-.2 23.1 9.9 23.3 22.5z"/><ellipse class="st3" cx="126.4" cy="194.9" rx="53.6" ry="53.5"/><path class="st3" d="M180 194v.1c.4 29.5-23.2 53.8-52.9 54.3-29.6.4-54-23.2-54.4-52.7v-.1L180 194z"/><path class="st4" d="M164 194.4c.3 20.7-16.3 37.8-37.1 38.1-20.8.3-37.9-16.3-38.2-37-.3-20.7 16.3-37.8 37.1-38.1 20.8-.3 37.9 16.3 38.2 37z"/><path class="st5" d="M125.9 157.4c20.8-.3 37.9 16.3 38.2 37l-75.3 1.1c-.4-20.8 16.3-37.8 37.1-38.1z"/><path class="st3" d="M149.3 194.6c.2 12.6-9.9 23-22.6 23.2-12.7.2-23.1-9.9-23.3-22.5-.2-12.6 9.9-23 22.6-23.2 12.7-.2 23.1 9.9 23.3 22.5z"/><path d="M466.2 68.3s79 5.8 108.3 12.4c20.6 4.6 60.4 12.6 59.9 37.5l-3.2 17.9S646 142.8 646 160s3.6 43.8-30.8 44.8c-5.7.2-16.5 0-16.5 0s6.6-73.2-60.8-75.3c-68.6-2.2-64 74.6-64 74.6H187.8s11.7-74.8-62.1-75c-73.8-.1-62.6 75.4-62.6 75.4s-27.2 2.3-39.8-20.4c-12.6-22.8-9.3-39-9.3-39l.4-14.4c.1-4.9 4.1-8.8 9-9 0 0-4.9-36.2 2.6-42.5 7.6-6.3 49-44.1 49-44.1l-2-1.2c-3.3-2.1-2.7-7 1-8.3 15.8-5.3 47-16 54.3-18.6 1.1-.4 2.2-.6 3.4-.7 4.4-.3 16.7-1.1 39.4-1.4 27.7-.3 137.5 0 137.5 0s37.8 3.1 58.8 12.3c22.2 9.8 98.8 51.1 98.8 51.1z" fill="#739af0"/><path d="M626 158c2.9-.6 7.3-.6 9.4 1.3 1.6 1.4 2.1 3.8 2.3 5.9.3 3 .5 6-.2 8.9-.7 2.9-2.4 5.7-5 7.1-2.6 1.4-6.2 1.2-8.2-1-1.9-2-2.1-5-2-7.7.1-3.9-.2-7.1.5-10.9.1-.7.5-1.6 1-2.2.7-1 1.2-1.4 2.2-1.4" opacity=".4"/><path class="st4" d="M631.3 136.1c-8.4 0-16.5-.5-24.9-1-.9-.1-1.9-.2-2.6-.8-.8-.7-.9-2-.9-3 0-4.5.2-9.6 3.6-12.5 2.1-1.8 4.9-2.3 7.7-2.6 6.7-.6 13.8-.1 20.2 2l-3.1 17.9z"/><path class="st8" d="M457.2 201.8s0-.2.1-.7c0-.5.1-1.2.1-2.1.1-1.9.3-4.6.4-8.1.2-3.5.4-7.8.9-12.7.5-4.9 1.3-10.6 3-16.6 1.7-6 4.3-12.5 8.1-18.8 3.8-6.3 8.9-12.5 15.6-17.4 13.5-9.6 31.8-15 50.9-15.3 19.2-.2 37.4 5.8 50.6 15.9 6.7 4.9 12.2 10.7 16.4 16.7 4.3 6 7.4 12.2 9.6 18 2.2 5.9 3.4 11.4 4.1 16.4.7 4.9.6 9.2.5 12.7-.3 3.5-.6 6.2-1 8-.2.9-.3 1.6-.4 2.1-.1.5-.1.7-.1.7s.1-.2.2-.7c.1-.5.2-1.2.4-2.1.4-1.8.8-4.5 1.1-8 .2-3.5.3-7.8-.4-12.8-.6-4.9-1.8-10.6-4-16.5s-5.3-12.1-9.6-18.2-9.8-11.9-16.5-16.8c-13.3-10.2-31.6-16.2-50.9-16-19.2.2-37.6 5.7-51.2 15.4-6.8 4.9-11.9 11.2-15.7 17.5-3.8 6.4-6.4 12.8-8.1 18.9-1.7 6.1-2.4 11.7-2.9 16.7s-.7 9.3-.8 12.8c-.1 3.5-.3 6.2-.3 8.1 0 .9-.1 1.6-.1 2.1v.8z"/><path class="st3" d="M454.1 203.1v-.6c0-.4 0-1 .1-1.8 0-1.6.1-3.9.2-6.9.2-6.1.4-14.9.7-26.2.3-11.3.7-25 1.1-40.7.1-3.9.2-8 .3-12.2.1-2.1-.1-4.2-.3-6.4-.2-1.1-.3-2.1-.5-3.2s-.4-2.1-.7-3.2c-1-4.3-2.5-8.6-4.5-12.8-2-4.2-4.3-8.3-7.3-12.2-15.3-9.6-31.9-20.1-49.6-31.1-4.4-2.8-8.9-5.6-13.4-8.4-4.4-3-9.2-5.6-14.2-7.9-5-2.3-10.1-4.4-15.4-6.1-2.6-.9-5.3-1.7-8-2.5-2.7-.7-5.4-1.5-8.2-2-10.7-2.4-21.4-3.5-31.9-4s-20.9-.5-30.9.1h-.3l.1.3c4.7 21.2 9.2 41.1 13.3 59.4 2.5 4.1 4.5 8.4 6 12.8 1.4 4.4 2.3 8.8 2 13.2-.3 4.4-.5 8.7-.6 12.9-.1 4.2-.2 8.2-.2 12.1-.2 15.7-.3 29.4-.3 40.7v26.2c0-6.1.1-14.9.2-26.2.1-11.3.2-25 .4-40.7.1-3.9.2-8 .3-12.1.1-4.2.2-8.4.6-12.8.3-4.4-.6-9-2-13.4-1.5-4.4-3.5-8.7-6-12.9v.1c-4.1-18.3-8.5-38.3-13.3-59.4l-.2.3c10-.6 20.4-.6 30.9-.1s21.2 1.7 31.9 4c2.8.6 5.5 1.3 8.2 2 2.7.8 5.4 1.6 8 2.5 5.3 1.8 10.4 3.8 15.3 6.1s9.7 4.9 14.1 7.8c4.5 2.8 9 5.6 13.4 8.4C411 57.3 427.7 67.7 443 77.3h-.1c3 3.8 5.3 7.9 7.3 12.1 2 4.2 3.4 8.5 4.5 12.7 2.3 8.6 1.1 17 1.1 24.9-.4 15.7-.7 29.4-1 40.7-.3 11.3-.5 20.2-.6 26.2-.1 3-.1 5.3-.1 6.9v2.3z"/><path class="st3" d="M272.1 16.6h-1.9c-1.2 0-3-.1-5.3-.1-4.7-.1-11.4-.2-19.7-.4-16.8-.3-40.1-.7-66.6-1.1h-.1l-.1.1c-3 3.6-6.1 7.5-9.3 11.4-9.4 11.6-18.4 22.6-26.6 32.6-1 1.3-2 2.5-3 3.7-1 1.2-1.8 2.6-2.5 4-1.3 2.8-2 5.8-2 8.7 0 2.9.6 5.7 1.6 8.2 1.1 2.4 2.1 4.8 3 7 3.9 9 7 16.2 9.2 21.2 1.1 2.5 1.9 4.4 2.5 5.8.3.6.5 1.1.7 1.5.2.3.2.5.2.5s-.1-.2-.2-.5c-.1-.4-.4-.9-.6-1.5-.6-1.3-1.4-3.3-2.4-5.8-2.1-5-5.2-12.3-9-21.3-1.7-4.5-4.8-9.3-4.6-15.1 0-2.8.7-5.8 2-8.5.7-1.4 1.5-2.7 2.4-3.9 1-1.2 2-2.5 3-3.7 8.2-10 17.2-21 26.7-32.5 3.2-3.9 6.3-7.7 9.3-11.4l-.2.1c26.4.4 49.8.7 66.6 1 8.4.1 15.1.2 19.7.2h6.7c.4-.2.5-.2.5-.2zm33.6 88.3s-.3 0-.8-.1-1.3-.3-2.1-.8-1.7-1.5-2.1-2.8c-.2-.7-.3-1.4-.3-2.2 0-.8.2-1.6.6-2.4.8-1.5 2.6-2.8 4.6-2.8h22.3c1.3 0 2.6.5 3.5 1.4.9.9 1.5 2 1.7 3.3.1 1.3 0 2.5-.6 3.5s-1.5 1.8-2.6 2.3c-1.1.5-2.2.4-3.3.4h-9.2c-3.6 0-6.5.1-8.5.1h-2.3c-.6 0-.9.1-.9.1s.3 0 .8.1h2.3c2.1 0 5 0 8.5.1h10.9c.6 0 1.2-.2 1.8-.4 1.1-.5 2.2-1.3 2.8-2.5.7-1.1.8-2.5.7-3.8-.1-1.3-.8-2.7-1.8-3.6-1-.9-2.4-1.5-3.9-1.5h-22.3c-2.2 0-4.1 1.4-4.9 3.1-.4.8-.6 1.7-.6 2.5s.1 1.6.3 2.3c.5 1.4 1.4 2.3 2.3 2.9.9.5 1.7.7 2.2.8h.9z"/><path class="st3" d="M157.4 104.9s-.3 0-.8-.1-1.3-.3-2.1-.8-1.7-1.5-2.1-2.8c-.2-.7-.3-1.4-.3-2.2 0-.8.2-1.6.6-2.4.8-1.5 2.6-2.8 4.6-2.8h22.3c1.3 0 2.6.5 3.5 1.4.9.9 1.5 2 1.7 3.3.1 1.3 0 2.5-.6 3.5s-1.5 1.8-2.6 2.3c-1.1.5-2.2.4-3.3.4h-9.2c-3.6 0-6.5.1-8.5.1h-2.3c-.6 0-.9.1-.9.1s.3 0 .8.1h2.3c2.1 0 5 0 8.5.1h10.9c.6 0 1.2-.2 1.8-.4 1.1-.5 2.2-1.3 2.8-2.5.7-1.1.8-2.5.7-3.8-.1-1.3-.8-2.7-1.8-3.6-1-.9-2.4-1.5-3.9-1.5h-22.3c-2.2 0-4.1 1.4-4.9 3.1-.4.8-.6 1.7-.6 2.5s.1 1.6.3 2.3c.5 1.4 1.4 2.3 2.3 2.9.9.5 1.7.7 2.2.8h.9z"/><path class="st4" d="M27.4 80.7H57c4.1 0 7.8 2.2 9.7 5.8 1.6 2.9 1.7 6.4.3 9.5l-11.6 26.4-29.7-.3s-6.3-33.4 1.7-41.4z"/><path class="st3" d="M439.5 77l-153.1-2.8-99.7-1.8-32.9-18.9c-2.7-1.5-3.4-5-1.5-7.5l20.5-26.8c2.1-2.8 5.4-4.4 9-4.5l111.5-.9s42-2.4 75 16C403.1 49.2 439.5 77 439.5 77z"/><path class="st9" d="M369.3 16.5s-7.7 3.5-2.7 6.7 82.6 52 82.6 52l17.8-8.1c-31.5-17.4-63.5-34.5-97.7-50.6z"/><path class="st3" d="M446.7 76.5s.2.1.5.1c.3.1.8.2 1.4.3 1.3.3 3.1.6 5.4 1.1 4.7.9 11.6 2.3 20.1 3.7 17 2.9 40.6 6.3 66.9 8.6 6.6.6 13 1 19.2 1.4 6.2.4 12.2.8 17.8 1.3 11.4 1 21.5 2.6 29.8 5.1 8.3 2.4 14.6 5.4 18.8 7.8 2.1 1.1 3.7 2.2 4.7 2.9.5.3.9.6 1.2.8.3.2.4.2.4.2s-.1-.1-.4-.3c-.3-.2-.7-.5-1.2-.8-1.1-.7-2.6-1.8-4.7-3-4.1-2.5-10.5-5.6-18.8-8-8.3-2.5-18.5-4.2-29.8-5.2-5.7-.5-11.7-.9-17.9-1.3-6.2-.4-12.6-.9-19.2-1.5-26.2-2.3-49.8-5.6-66.8-8.4-8.5-1.4-15.4-2.7-20.1-3.6-2.4-.4-4.2-.8-5.5-1-.6-.1-1.1-.2-1.4-.3-.2.1-.4.1-.4.1zM15.5 144.9c0 .1 10.2.3 22.8.3 12.6 0 22.8-.1 22.8-.3s-10.2-.3-22.8-.3c-12.6 0-22.8.1-22.8.3zm186.7 26c0 .1 57.6.3 128.7.3s128.7-.1 128.7-.3c0-.1-57.6-.3-128.7-.3s-128.7.1-128.7.3zm403.4-25.1c0 .1 8.1.3 18.2.3 10 0 18.2-.1 18.2-.3s-8.1-.3-18.2-.3-18.2.1-18.2.3z"/><path class="st9" d="M75.9 34.2s6.8 7.6 4.1 13.2C77.4 53 49.6 72.6 49.6 72.6l-20.2 3.8 46.5-42.2zm191.7-13.7l4.5 48.8L191 67l-32.7-18.9 21.2-27.6zm152.7 51.3S371.4 36.5 352 29.5c-18.6-6.8-28.4-8.5-45.9-9-16.7-.5-26.9 0-26.9 0l12.9 49.6 128.2 1.7z"/><path d="M427.4 72c0-3.1-1.7-5.9-4.4-7.5l-11.2-6.3c-3.2-1.8-6.8-2.7-10.5-2.7-2.3 0-4.5.4-6.7 1.1-4.8 1.6-8 6.1-8.2 11.2-.3 7 5.4 12.8 12.4 12.8h20c4.8 0 8.6-3.9 8.6-8.6z" fill="#588ff0"/><path class="st3" d="M427.4 72s0 .4-.1 1.1c-.1.7-.3 1.7-1 2.9s-1.8 2.5-3.4 3.4c-.8.4-1.8.8-2.9.9-1.1.1-2.2.1-3.5.1-4.9 0-10.7 0-17.1-.1-1.6 0-3.2-.2-4.8-.8-1.5-.6-3-1.5-4.2-2.7-1.2-1.2-2.2-2.7-2.9-4.3-.6-1.7-.9-3.5-.7-5.3.3-3.6 2.2-7 5.1-9 1.4-1 3-1.6 4.6-2 1.6-.4 3.3-.6 4.9-.6 3.2 0 6.2.7 8.8 1.9 1.3.6 2.5 1.3 3.6 1.9 1.2.6 2.3 1.3 3.3 1.9 2.1 1.2 4.1 2.2 5.8 3.2 1.7.9 2.8 2.2 3.4 3.4.7 1.2.9 2.2 1 2.9.1.8.1 1.2.1 1.2s.1-.4 0-1.1c-.1-.7-.3-1.8-.9-3-.6-1.2-1.8-2.6-3.5-3.5-1.7-1-3.6-2-5.7-3.3-1.1-.6-2.2-1.2-3.3-1.9-1.2-.6-2.3-1.4-3.7-2-2.6-1.2-5.7-2-9-2-1.6 0-3.3.2-5 .6-1.7.4-3.4 1-4.8 2-3 2-5 5.5-5.3 9.3-.1 1.9.1 3.8.8 5.5.7 1.7 1.7 3.3 3 4.5 1.3 1.2 2.8 2.2 4.4 2.8 1.6.6 3.3.8 4.9.8 6.4 0 12.3 0 17.1-.1 1.2 0 2.4 0 3.5-.1 1.1-.2 2.1-.5 3-1 1.7-1 2.8-2.3 3.5-3.5.6-1.2.9-2.3.9-3 .2-.6.1-1 .1-1z"/><path class="st8" d="M50.4 202.3v-.7c0-.5-.1-1.2-.1-2-.1-.9-.2-2-.2-3.3 0-1.3-.1-2.8-.2-4.5v-5.6c.1-2.1.1-4.3.4-6.7.4-4.8 1.2-10.3 2.9-16.1.9-2.9 1.8-5.9 3.2-9 1.3-3 2.9-6.1 4.8-9.1 3.8-6 9.2-11.6 15.7-16.3 6.5-4.7 14.1-8.5 22.5-11.1 8.4-2.6 17.5-3.5 26.7-3.6 9.3 0 18.3 1.2 26.7 3.9 4.2 1.3 8.1 3 11.9 4.9 3.7 1.9 7.1 4.3 10.3 6.7 6.3 5 11.6 10.5 15.9 16.2 2.1 2.9 3.8 5.9 5.3 8.8 1.4 3 2.7 5.9 3.6 8.8 4.1 11.5 5.3 21.3 5.8 28.1.2 3.4.1 6 .1 7.8-.1.9-.1 1.6-.1 2v.7s0-.2.1-.7c0-.5.1-1.1.2-2 .1-1.8.2-4.4 0-7.8-.4-6.8-1.6-16.7-5.6-28.2-1-2.9-2.2-5.8-3.6-8.8-1.5-3-3.2-6-5.3-8.9-4.3-5.8-9.6-11.4-15.9-16.4-3.2-2.5-6.6-4.8-10.4-6.8-3.8-1.9-7.8-3.6-11.9-4.9-8.4-2.7-17.5-3.9-26.8-3.9-9.3.1-18.4 1-26.9 3.6-8.4 2.5-16.1 6.4-22.6 11.2-3.3 2.4-6.2 5-8.9 7.8s-5 5.7-6.9 8.7c-1.9 3-3.6 6.1-4.8 9.2-1.4 3-2.3 6.1-3.2 9-1.6 5.9-2.4 11.3-2.8 16.2-.3 2.4-.3 4.7-.4 6.7v5.7c.1 1.7.1 3.2.2 4.5.1 1.3.2 2.4.3 3.3.1.9.1 1.6.2 2-.3.3-.2.6-.2.6zM294.3 77h.9c.6 0 1.5 0 2.6.1 2.3 0 5.6.1 9.6.2 8.1.2 19.3.4 31.7.8 12.4.3 23.6.6 31.7.6h12.9-.7c-.6 0-1.5 0-2.6-.1-2.3 0-5.6-.1-9.6-.2-8.1-.2-19.3-.4-31.7-.8-12.4-.3-23.6-.6-31.7-.6h-13.1zm13.3 15c0 .1 3.9.3 8.8.3s8.8-.1 8.8-.3c0-.1-3.9-.3-8.8-.3-4.9.1-8.8.2-8.8.3zm-3.2-53.5c-.1.1 10.8 4.7 24.4 10.1 13.5 5.5 24.5 9.8 24.5 9.6s-10.8-4.7-24.4-10.1c-13.5-5.4-24.5-9.7-24.5-9.6zm22.1 3.4c-.1.1 10.3 4.7 23.2 10.2 12.9 5.5 23.3 9.8 23.4 9.7.1-.1-10.3-4.7-23.2-10.2-12.9-5.4-23.4-9.8-23.4-9.7zm-140.1-5.3c-.1.1 10.8 4.7 24.4 10.1 13.5 5.5 24.5 9.8 24.5 9.6.1-.1-10.8-4.7-24.4-10.1-13.5-5.4-24.5-9.7-24.5-9.6zm22.1 3.5c-.1.1 10.3 4.7 23.2 10.2 12.9 5.5 23.3 9.8 23.4 9.7.1-.1-10.3-4.7-23.2-10.2-12.9-5.5-23.4-9.9-23.4-9.7zM184.2 77c0 .1 21.7.4 48.4.5 26.8.2 48.4.2 48.4 0 0-.1-21.7-.4-48.4-.5-26.7-.1-48.4-.1-48.4 0zm-24 14.2c0 .1 6.1.3 13.6.4 7.5.1 13.6 0 13.6-.1s-6.1-.3-13.6-.4c-7.5-.1-13.6 0-13.6.1zm415.2-7.4s.2.1.6.1c.4.1 1 .1 1.7.2s1.6.2 2.7.4c1 .2 2.2.3 3.5.6 2.6.5 5.7 1.1 9.1 2 3.4.9 7.1 2.1 10.8 3.6 3.8 1.5 7.3 3.1 10.4 4.7 3.1 1.6 5.8 3.2 8.1 4.7 1.1.7 2.1 1.4 3 2 .9.6 1.6 1.1 2.2 1.6.6.4 1 .7 1.4 1 .3.2.5.3.5.3s-.1-.2-.4-.4c-.4-.3-.8-.6-1.3-1.1-.6-.5-1.3-1-2.2-1.6-.9-.6-1.8-1.3-3-2-2.2-1.5-4.9-3.1-8-4.8-3.1-1.6-6.6-3.3-10.4-4.8-3.8-1.5-7.5-2.6-10.9-3.6-3.4-.9-6.5-1.5-9.2-1.9-1.3-.2-2.5-.4-3.6-.5-1-.1-2-.2-2.7-.3-.7-.1-1.3-.1-1.7-.1-.4-.1-.6-.1-.6-.1zm-179-23.6s.3-.4 1-.9 1.8-1.1 3.3-1.3c1.5-.2 3.4.1 5.3.6 2 .5 4.1 1.2 6.3 2.1 4.4 1.9 7.9 4.4 10.3 6.4 2.4 2 3.6 3.5 3.7 3.4 0 0-.3-.4-.8-1.1-.6-.7-1.5-1.6-2.6-2.6-2.3-2.1-5.9-4.7-10.3-6.6-2.2-1-4.4-1.7-6.4-2.1-2-.5-3.9-.7-5.5-.5-1.6.2-2.7.9-3.4 1.5-.3.3-.5.6-.7.8-.2.2-.2.3-.2.3z"/><path class="st3" d="M73.6 33.8s1.5.4 4.3.4c1.4 0 3.1-.2 5-.6 1.9-.4 4.1-1.1 6.4-2 2.3-.9 4.8-2 7.5-3.1 1.3-.5 2.7-1.1 4.2-1.7 1.4-.6 2.9-1.1 4.5-1.6 6.2-2.1 13.1-4 20.4-5.6 14.7-3.1 28.3-4.4 38.2-4.7 2.5-.1 4.7-.1 6.7-.2h5c1.3 0 2.4.1 3.2.1h.8c-.2 0-.5 0-.8-.1-.8 0-1.8-.1-3.2-.2-1.4 0-3.1-.1-5-.1-2 0-4.2 0-6.7.1-9.9.3-23.5 1.5-38.3 4.6-7.4 1.6-14.3 3.5-20.5 5.6-1.5.6-3 1.1-4.5 1.6-1.4.6-2.8 1.2-4.2 1.7-2.7 1.2-5.1 2.3-7.4 3.2-2.3.9-4.4 1.6-6.3 2-1.9.4-3.6.6-4.9.7-1.4 0-2.4 0-3.2-.1-.3 0-.6-.1-.8-.1-.3.1-.4.1-.4.1z"/></g></svg>