<svg xmlns="http://www.w3.org/2000/svg" viewBox="0 0 455.1 455.1"><circle cx="227.6" cy="227.6" r="227.6" fill="#73bc36"/><path d="M455.1 227.6c0 125.2-102.4 227.6-227.6 227.6-72.5 0-136.5-32.7-177.8-85.3 38.4 31.3 88.2 49.8 142.2 49.8 125.2 0 227.6-102.4 227.6-227.6 0-54-18.5-103.8-49.8-142.2C422.4 91 455.1 155 455.1 227.6z" fill="#8dc640"/><path d="M351.3 162.1L203.4 324.3c-10 11.4-27 11.4-37 0l-62.6-69.7c-8.5-10-8.5-25.6 1.4-35.6 10-8.5 25.6-8.5 35.6 1.4l44.1 49.8 129.4-140.8c10-10 25.6-11.4 35.6-1.4 9.9 8.5 9.9 25.6 1.4 34.1z" fill="#fff"/></svg>