<svg version="1.1" id="Modo_de_aislamiento" xmlns="http://www.w3.org/2000/svg" x="0" y="0" viewBox="0 0 1056.6 1318" xml:space="preserve"><style>.st0{fill:#062440}.st1{fill:#86a5ea}.st3{fill:#ffc2b6}.st5{fill:#fff}.st6{fill:#e62552}.st8{fill:#98b0f2}.st11{fill:#afc0ff}.st12{fill:#9eadf6}.st14{fill:#f4a089}.st15{fill:#de623c}.st16{fill:#201d40}.st19{fill:#5e8adb}.st21{fill:#17962e}</style><path class="st0" d="M825.4 277.8c-49.7-14-156 30.9-127.1 211.8s165.9 151.1 165.9 151.1 59.7-18.8 65-133.7c5.4-115-20.1-205.6-103.8-229.2z"/><path class="st1" d="M784 497.5s-10 103.1-95.6 156.1c-15-4.1-29.3-39.1-29.3-39.1l46.7-113s16.7-24.4 46.2-24c25.7.4 32 20 32 20z"/><path d="M782.2 442.1l37.1-5.6-3 34.4s-18.8 33.8-36.6 28-9.1-20.8-9.1-20.8l11.6-36z" fill="#f9b8af"/><path class="st3" d="M848.9 386.3c-6 40.7-36.8 69.8-68.7 65-31.9-4.7-52.9-41.5-46.9-82.2s36.8-69.8 68.7-65c32 4.7 53 41.5 46.9 82.2z"/><path d="M808 375c-.4-.1-.8-.4-1.1-.8-4.1-5.9-12.5-5.8-12.5-5.8-1.2 0-2.1-.9-2.2-2 0-1.2.9-2.1 2-2.2.4 0 10.7-.3 16.2 7.6.7 1 .4 2.3-.5 2.9-.6.4-1.3.4-1.9.3zm-71.2-1.2c-.2-.1-.4-.2-.6-.4-.9-.8-1-2.1-.2-3 5.9-6.9 14-5 14.4-4.9 1.1.3 1.8 1.4 1.5 2.6-.3 1.1-1.4 1.8-2.6 1.5-.3-.1-6-1.3-10.1 3.5-.6.8-1.6 1-2.4.7z"/><path d="M766.3 391c-2.7 3.3-4.9 6.6-7.6 8.6-.9.7-1.1 2-.4 2.9 2.6 3.8 9.5 6.5 13.7 7.9.6.2 1-.6.5-1-4.4-3.2-6.4-5.7-7.2-7.1-.4-.7-.5-1.5-.2-2.3.7-1.7 2.1-5.2 2.9-8.1.2-1-1.1-1.7-1.7-.9z" fill="#f99680"/><path class="st5" d="M793 421.7c.8-1.2-.2-2.9-1.7-2.6-3.7.7-9.9 1.7-15.8 2-5.9.4-12.1.1-15.9-.1-1.5-.1-2.3 1.6-1.4 2.8 2.9 3.5 8.9 8.7 17.9 8.2 9.2-.6 14.4-6.5 16.9-10.3z"/><path class="st0" d="M861.9 382.5c-37.8-1.7-87.4-36.6-93.4-55.7 5.2-24.1 24.1-37.7 46.8-28.7 22.7 8.9 59.9 53.5 46.6 84.4z"/><path class="st0" d="M777.1 336.5s-22.5 22.8-45.2 28.1c8-26.6 13.7-46.8 27.3-53.4 13.7-6.5 28.7-7.7 28.7-7.7l-10.8 33z"/><path class="st3" d="M840.1 379.9c-7.1 6.6-8.4 16.6-3.1 22.4 5.4 5.8 15.5 5.2 22.6-1.4s8.4-16.6 3.1-22.4c-5.4-5.8-15.5-5.1-22.6 1.4z"/><path class="st3" d="M846.2 399.7c-.3-.1-.6-.3-.8-.6-3.3-3.6-3.9-8-1.8-11.6 2.2-3.7 6.7-5.7 10.8-4.8 1.1.3 1.8 1.4 1.6 2.5-.3 1.1-1.4 1.8-2.5 1.6-2.2-.5-4.9.7-6.2 2.8-1.2 2-.8 4.4 1.3 6.6.8.9.7 2.2-.2 3-.6.7-1.5.8-2.2.5z"/><path d="M803.9 381.2c0 3.6-2.9 6.5-6.5 6.5s-6.5-2.9-6.5-6.5 2.9-6.5 6.5-6.5 6.5 2.9 6.5 6.5zm-47.2 0c0 3.6-2.9 6.5-6.5 6.5s-6.5-2.9-6.5-6.5 2.9-6.5 6.5-6.5c3.5 0 6.5 2.9 6.5 6.5z"/><path class="st3" d="M747.5 1221.3c2.5-24.8-10.3-213.2-10.3-213.2-36.1-165.7-21.9-284.2-21.9-284.2l62.1 4.4 24.5 93.6-11.6 156.3s4.4 12 6.7 21.7c12.5 52.2 0 114.5-7.6 156.1-3.6 19.3-9.1 59.7-9.2 68.9l15.6 20.2s-56.5 62.5-65.1 62.9c-16.9.8-11.9-16-11.9-16 23-23.9 28-63.6 28.7-70.7z"/><path class="st6" d="M796.6 1267.2l-3.1 40.1-7.2.3-3.6-37.3c-19.2 4.9-33 39.8-33 39.8-13.2 4.7-46.9 8-58.8 1.8-2.9-11.7 27.8-20 27.8-20 2.8 3.3 19.2 5.8 25 2.3 21.4-18.2 31.9-44.8 36.4-69.4-.1.1 33.8 2.4 16.5 42.4z"/><path class="st3" d="M768.5 735.9l87.5-12c33.5 75.7 44.4 207.5 53.5 254.5 36.5 61.1 48 246.5 48 246.5l15.6 20.2s-56.5 62.5-65.1 62.9c-16.9.8-11.9-16-11.9-16 23.2-23.8 27.7-55.5 29.2-62.5 2.3-10.5-70.8-216.1-70.8-216.1l-7.8-19.5C757.4 846.4 742.8 735 742.8 735l25.7.9z"/><path class="st6" d="M974 1267.2l-3.1 40.1-7.2.3-3.7-37.3c-19.2 4.9-33 39.8-33 39.8-13.2 4.7-46.9 8-58.8 1.8-2.9-11.7 27.8-20 27.8-20 2.8 3.3 19.2 5.8 25 2.3 21.4-18.2 31.9-44.8 36.4-69.4.1.1 33.9 2.4 16.6 42.4z"/><path d="M931.1 969.7c-8.7-29.2-4.9-238.4-82.1-295.3l-132.7 14c-30.7 49.6-19.4 178.8-9.1 285.1 62.5 22.3 112.1 31.2 223.9-3.8z" fill="#070635"/><path class="st8" d="M714.8 655.6c0-29.1-25.2-72.6-13.1-101.9 8.8-23.6 26.1-76.8 44.9-80.4 7.6-1.5 16 0 26.6-2.9 0 0-5.5 24.6 6.9 25.6 23.9 1.9 36.5-28.8 36.5-28.8 12.9-1.2 57.9 12.2 57.9 17.1-.1 38.1-11.5 90.9-21.6 132-1.9 21 3 37.9 5.1 49.8 3.8 12.4 10.1 26 10.1 28.7 0 0-99 31.6-155.5.6-.1-.1 2.2-20.1 2.2-39.8z"/><path class="st5" d="M780 496c-2.1 10 3.7 21.9 20.3 16.3 20-6.7 29.3-44.2 29.3-44.2l-12.5-6.8c.1 0-9.4 25.9-37.1 34.7z"/><path class="st5" d="M780 496c-2.5 5.1-16.5 18.3-23.2 10.4-6.7-7.8 3.4-34.1 3.4-34.1l13.2-3.8c0 .1-6.2 20.4 6.6 27.5z"/><path class="st1" d="M873.8 482.6s75.6 93.4 63.7 140.6c-33.1 24.3-50-4-50-4l-44-72.1s-18.4-25.1-4.4-49.8c12.1-21.5 34.7-14.7 34.7-14.7z"/><path class="st5" d="M771.6 694.3h-33.5c-2.7 0-5-2.1-5.2-4.8l-4.9-77.3c-.1-1.8 1.3-3.3 3.1-3.3h47.5c1.8 0 3.2 1.5 3.1 3.3l-5.1 77.3c0 2.7-2.3 4.8-5 4.8z"/><path d="M778 629.8l-3.6 57.5c-.2 2.5-2.2 4.5-4.6 4.5h-29.7c-2.4 0-4.4-2-4.6-4.5l-3.4-56.1c6.1-2.2 14.5-3.4 22.7.9 7.9 4.2 18.8-.2 23.2-2.3z" fill="#809df2"/><path class="st3" d="M800.7 650.5s52.1-25.1 69.2-34.7c17.8-10 39.4-23.3 67.5 7.3-8.7 33.7-50.3 52.9-137.5 51.5 1.5-12.4.8-24.1.8-24.1z"/><path class="st3" d="M800.7 650.5c-10.5-4.7-12.2-23.5-20.3-19.3-.4 8.5-.8 12-1 16.6-.3 6.1-38.7 2.2-49.6-.8-8.7 8.4-8.5 18.3-1.1 30.8 6.1 10.3 27.6 23.1 71.1-3.1 3.7-14.3.9-24.2.9-24.2zm-239.2 29.4s81.4-61.9 100.6-65.4c8.5-1.6 17.8 17.7 26.3 39.1-28 24.1-68.8 42.8-124 50.3-.4-12.6-2.9-24-2.9-24z"/><path class="st3" d="M548.3 720.9c6.5-6.4 10.5-16.7 20.3-17.6l4.5-16.6-7.3-8.1c-28.8-5.1-59.4 18.2-62.1 20.7-7.1 6.6-10.9 9.3-10.5 10.8.5 1.4 5.3 9 16-.3 13.4-11.7 16.1 6.5-18 24.1-8.5 4.4-16.6 19.9-7.6 19.8 9.8-.2 34.9-3.6 64.7-32.8z"/><path d="M727.7 142.7v104.8c-.1 19.3-15.8 35-35.1 35h-9.7v57.2c0 5.2-7 6.9-9.4 2.2l-30.1-59.4H447.1c-19.4 0-35.1-15.7-35.1-35.1V142.7c0-19.4 15.7-35.1 35.1-35.1h245.5c19.4 0 35.1 15.7 35.1 35.1z" fill="#fff" stroke="#b0d5f7" stroke-width=".5" stroke-miterlimit="10"/><path class="st11" d="M997.7 89.3h20.3v922.1h-20.3V89.3z"/><path class="st12" d="M1036.6 1026.4s-7.6 6.7-28.7 6.7c-19.9 0-28.7-6.7-28.7-6.7V809.8c0-15 12.1-27.1 27.1-27.1h1.9c15.7 0 28.5 12.7 28.5 28.5l-.1 215.2z"/><path class="st11" d="M1042.7 288.1H973c-7.7 0-13.9-6.2-13.9-13.9V15.9C959.1 8.2 965.3 2 973 2h69.7c7.7 0 13.9 6.2 13.9 13.9v258.2c0 7.7-6.2 14-13.9 14z"/><circle transform="rotate(-3.371 1008.21 142.52) scale(1.00003)" cx="1008.2" cy="142.5" fill="#f9d926" r="37.4"/><circle transform="rotate(-80.055 1008.39 227.16)" class="st12" cx="1008.4" cy="227.2" r="37.4"/><circle transform="rotate(-79.042 1008.262 56.807)" class="st12" cx="1008.3" cy="56.8" r="37.4"/><g id="c_40_"><path id="v-2_7_" class="st14" d="M174.4 438.4l26.6.1 6 62.2-31 16.2-33-16 5.3-62.4 26.1-.1z"/><ellipse transform="rotate(-7.799 186.299 385.494)" class="st14" cx="186.3" cy="385.5" rx="65.2" ry="82.4"/><path class="st15" d="M208.8 395c6.6 8.5 14.8 18.8 14.8 18.8s-2.4 9.8-15.1 11.2c5.1-2.7 10.1-6.8 7.2-13.7-2.8-6.9-6.9-16.3-6.9-16.3z"/><path class="st16" d="M106.9 357.7c-3.9-43 36-57.1 36-57.1s-8.9-3.1-6.8-16.1c6.3 3.8 14 5.6 21.3 4.9 49.5-4.9 80.7 3.2 75.8 22.5-1.8 6.9 30.4 10.4 16.1 55.9-3.1-5.4-5.8-25.5-15.4-30-9.7-4.5-3.9 11.3-25.8 8.8-22.1-2.5-36.4-11.6-52.5-2.9-12.9 7.8-28.9 60.2-28.2 63.8-1.8-8.3-18.8-30.9-20.5-49.8z"/><path class="st16" d="M251.3 401.6s-4.2 24.5-9.6 31.1c-1.2-10.6-24.5-3.9-34.6-3-18.4 1.6-37-14.6-43.2 9.4-23.4 1.3-31.9-49.7-31.9-49.7-14.4 51.1 11.4 88.3 68 93.5 37.4 3.2 58-44.1 51.3-81.3z"/><path d="M182.3 392.3c-3.5.2-6.5-2.4-6.7-5.8-.2-3.5 2.4-6.4 5.9-6.7 3.5-.2 6.5 2.4 6.7 5.8.2 3.5-2.4 6.5-5.9 6.7zm52.1-1.9c-3.5.2-6.5-2.4-6.7-5.8-.2-3.5 2.4-6.4 5.9-6.7 3.5-.2 6.5 2.4 6.7 5.8.2 3.5-2.4 6.5-5.9 6.7z"/><path class="st16" d="M244.9 377.3c-1.1.1-2.1-.4-2.8-1.3-1.8-2.6-3.8-4.1-6.1-4.4-3.9-.6-7.6 2.2-7.6 2.2-1.4 1.1-3.3.8-4.4-.5-1.1-1.3-.9-3.3.5-4.4.2-.2 5.7-4.5 12.4-3.6 4.1.6 7.6 3 10.4 7 1 1.4.6 3.3-.8 4.3-.5.5-1.1.7-1.6.7zm-76.8 5c-.7 0-1.4-.1-2-.6-1.4-1-1.8-2.9-.8-4.3 3.8-5.4 8.1-8.4 12.9-9.1 6.2-.9 10.8 2.6 11 2.8 1.4 1.1 1.6 3 .5 4.4-1.1 1.3-3 1.6-4.4.5-.1-.1-2.8-2.1-6.3-1.5-3 .5-5.9 2.7-8.6 6.5-.5.8-1.4 1.2-2.3 1.3z"/><path class="st14" d="M131.4 389.4c7.8 7.4 9.2 18.5 3.1 24.9-6.1 6.3-17.3 5.5-25.2-1.9-7.8-7.4-9.2-18.5-3.1-24.9 6.1-6.3 17.4-5.4 25.2 1.9z"/><path class="st15" d="M124.3 411.3c.3-.1.6-.3.9-.6 3.7-4 4.5-8.8 2.1-12.8-2.4-4.2-7.4-6.4-12-5.4-1.3.3-2.1 1.5-1.8 2.8.3 1.3 1.5 2.1 2.8 1.8 2.5-.5 5.5.9 6.8 3.2 1.3 2.3.8 4.9-1.5 7.3-.9 1-.8 2.4.1 3.3.9.5 1.8.7 2.6.4z"/><path class="st5" d="M186.6 436.6c-.3-1.6.1-3.1 1.7-2.9 4.2.5 11 1.3 17.6 1.3 6.6.1 13.4-.6 17.6-1 1.6-.2 2 1.4 1.7 3-1.4 6.6-8.9 14-19 13.9s-18.6-8.2-19.6-14.3z"/><path d="M222.8 1252.5c23.5 32.1 81.1 12.4 79.2 55.9-87.6-.6-124.1 0-124.1 0 .1-10 1.8-33.7 3.9-43l41-12.9zm-131.1.9c23.5 32.1 81.1 12.4 79.2 55.9-87.6-.6-124.1 0-124.1 0 .1-10 1.8-33.7 3.9-43l41-12.9z"/><path d="M263.4 761.8s14.2 206 8.4 251.8c-5.8 45.8-26.2 104.5-23.9 256-28.6 7.1-70 0-70 0s-6.1-171.3 24.1-247.8c-12.3-74.3-51.7-244.5-51.7-244.5l113.1-15.5z" fill="#2e2a5c"/><path d="M209.3 767.4s-28.7 231.3-42.8 275.2c-14.1 43.9-26.3 76-51.8 225.2-29.4 1.5-71.8.6-71.8.6s3.8-184.9 49.6-228c1.5-75.4-7.4-271.5-7.4-271.5l124.2-1.5z" fill="#373178"/><g id="v_7_"><path id="h-5_4_" class="st8" d="M76.9 504.9s49.9-17.3 66.5-9.4c51.7 24.7 63.6 0 63.6 0 16.5 1.4 66.4 9.4 66.4 9.4 0 55.3 3.7 110.8 2.7 152.6-.7 36.4 6.3 135.6 6.3 135.6s-55 14.3-107.1 14.7c-52-.3-105-14.1-105-14.1s2.8-100.4 5.1-137.8c-.8-41.8 1.5-95.8 1.5-151z"/></g><g id="c_48_"><path id="c_49_" class="st19" d="M362.1 587.1c-20.6-48.8-81.7-79.8-88.7-82.2l-14.2 62.6c29.4 17.2 50.7 35.9 50.7 35.9-3.6 17.4-3 34.5-13.2 56.6 0 0 8.8-12.1 19.7-4.9 10.6 7 30.1-7.2 30.1-7.2s31.3-23.5 15.6-60.8z"/></g><g id="c_41_"><g id="c_44_"><g id="c_45_"><path id="c_47_" d="M350.6 710.4c.4.1.7.2 1.1.2h1.2c2.1-.2 4.1-1.7 4.7-3.9L412.5 531c.1-.4.2-.7.2-1.1v-1.1c0-.1-.1-.2-.1-.4-.3-2-1.7-3.7-3.8-4.4-.3-.1-.7-.2-1-.2H268.4L213 710.6h137.7l-.1-.2z" fill="#80bc48"/><path id="c_46_" class="st21" d="M269.6 524.1c-2.9-.9-6.1.7-7 3.6L208.1 703l-.1.4c-.9 2.9.7 6 3.6 6.9 2.9.9 6.1-.7 7-3.6L273.3 531c.9-2.9-.7-6-3.7-6.9z"/></g></g><path id="c_43_" class="st14" d="M374 635.6c.5-.3 1.1-.6 1.7-.7-.1-.1-.1-.2-.2-.3-3.4-5.1-3.2-11.3.5-13.8.6-.4 1.3-.7 2-.8-1-3.8-.1-7.5 2.6-9.2 1.1-.7 2.3-1 3.6-1-1.2-3.7-.3-7.7 2.7-9.6 3.7-2.4 9.1-.9 12.1 3.5 2.9 4.4 2.3 9.9-1.4 12.4-.9.6-2 1-3.1 1.1 2.5 4.8 2 10-1.4 12.3-.6.4-1.3.7-2 .8 1 3.8.1 7.5-2.6 9.2-1 .6-2.1 1-3.3 1 1.2 3.3.4 6.8-2.2 8.5-3.1 2.1-7.7.7-10.2-3-2.4-3.7-1.9-8.4 1.2-10.4z"/><path class="st14" d="M204.1 624.5l12.6-7.2s3.5-17.7 23.7-18.2c-2.3 7.4-5.7 18.2-5.7 18.2s10 7.7 33.6-5.5c23.1-5.2 13.2 11.6 20.9 12.8 11.3 1.8-8.2 23.8-31.3 27.2-29.8 4.4-33.4-1.7-33.4-1.7l-16.9 5.9-3.5-31.5z"/><path id="c_42_" class="st19" d="M75.3 645.1c42.1-2.9 126.2-25.3 126.2-25.3 11.5 17.5 8.3 40.8 8.3 40.8-65.4 56.9-163.8 75.3-194 61.6-27.6-12.5-8-179.2 61.2-217.3l-1.7 140.2z"/></g><path class="st21" d="M297.8 550.8c-2.4 5.9-8.5 9.1-13.7 7s-7.4-8.5-5.1-14.5c2.4-5.9 8.5-9.1 13.7-7s7.5 8.5 5.1 14.5zm17.6-2c-1.4 3.5-5.1 5.4-8.2 4.2s-4.4-5.1-3-8.6 5.1-5.4 8.2-4.2c3.1 1.1 4.4 5 3 8.6z"/></g><path d="M458.9 174.3c-2.3-.7-4.2-1.8-5.5-3.1l1.8-3.7c1.3 1.2 2.9 2.1 4.9 2.8 2 .7 4.1 1.1 6.2 1.1 2.8 0 4.9-.4 6.3-1.4 1.4-1 2-2.2 2-3.7 0-1.2-.4-2.1-1.2-2.8-.7-.7-1.7-1.3-2.8-1.7-1.1-.4-2.7-.9-4.7-1.3-2.6-.6-4.6-1.2-6.1-1.8-1.6-.6-2.9-1.5-3.9-2.8-1.1-1.3-1.7-3-1.7-5.1 0-1.8.4-3.4 1.4-4.8 1-1.5 2.3-2.6 4.3-3.4 1.9-.9 4.3-1.3 7.1-1.3 2 0 3.9.2 5.9.7 1.9.5 3.5 1.3 4.9 2.2l-1.6 3.8c-1.4-.9-2.9-1.6-4.5-2-1.6-.4-3.2-.7-4.7-.7-2.8 0-4.8.5-6.1 1.5-1.4 1-2 2.2-2 3.8 0 1.2.4 2.1 1.2 2.8.7.6 1.7 1.3 2.9 1.7 1.2.4 2.7.9 4.6 1.3 2.6.6 4.6 1.2 6.1 1.8 1.5.6 2.9 1.5 3.9 2.8 1.1 1.3 1.7 2.9 1.7 5 0 1.8-.5 3.4-1.5 4.8-1 1.5-2.5 2.6-4.4 3.4s-4.4 1.3-7.2 1.3c-2.5 0-4.9-.5-7.3-1.2zM503 152c1.9 1.7 2.8 4.3 2.8 7.8v15.4h-4.4v-3.4c-.7 1.2-1.9 2.1-3.3 2.7-1.4.6-3.1 1-5.1 1-2.9 0-5.1-.6-6.8-2-1.7-1.4-2.6-3.2-2.6-5.4s.9-4.1 2.5-5.4c1.6-1.4 4.3-2 7.8-2h7.2v-1c0-2-.5-3.5-1.7-4.6-1.2-1.1-2.9-1.6-5.1-1.6-1.5 0-3 .2-4.4.7-1.5.5-2.7 1.2-3.6 2l-1.9-3.4c1.3-1.1 2.9-1.8 4.7-2.5 1.8-.5 3.7-.9 5.9-.9 3.4-.1 6 .8 8 2.6zm-4.6 18.7c1.3-.7 2.2-1.9 2.8-3.3v-3.5H494c-3.9 0-5.9 1.3-5.9 3.9 0 1.3.5 2.2 1.5 3 1 .7 2.3 1.1 4.2 1.1 1.8-.1 3.3-.5 4.6-1.2zm37.9-21.1L525.1 175h-4.7l-11.2-25.5h4.8l8.8 20.5 9-20.4h4.5zm26.6 14.2h-20.7c.3 2.2 1.3 4.1 3 5.4 1.7 1.4 3.7 2 6.3 2 3.1 0 5.4-1.1 7.4-3.1l2.6 3c-1.2 1.4-2.6 2.3-4.3 3.1-1.7.7-3.6 1.1-5.8 1.1-2.7 0-5.1-.5-7.1-1.7-2.1-1.1-3.7-2.7-4.8-4.6-1.2-2-1.7-4.3-1.7-6.7s.5-4.7 1.7-6.7c1.1-2 2.7-3.5 4.6-4.6s4.2-1.7 6.5-1.7c2.5 0 4.6.5 6.5 1.7 1.9 1.1 3.4 2.7 4.5 4.6 1.1 2 1.6 4.3 1.6 6.8-.3.5-.3.9-.3 1.4zm-18.1-8.5c-1.5 1.4-2.3 3.1-2.7 5.3h16.3c-.2-2.1-1.2-3.9-2.7-5.2-1.5-1.4-3.3-2-5.5-2s-4 .5-5.4 1.9zm61.1-5.7V175h-4.4v-3.8c-1 1.3-2.1 2.3-3.6 3.1-1.5.7-3.2 1.1-5 1.1-3.4 0-6.1-1-8-2.8-1.9-1.9-2.9-4.6-2.9-8.3v-14.6h4.6v14.1c0 2.5.6 4.4 1.8 5.5 1.2 1.3 2.9 1.9 5.1 1.9 2.5 0 4.4-.7 5.8-2.2 1.4-1.5 2.1-3.5 2.1-6.3v-13.1h4.5zm28.9 1.5c1.9 1.1 3.5 2.6 4.6 4.6 1.1 1.9 1.7 4.2 1.7 6.8s-.5 4.8-1.7 6.8c-1.1 1.9-2.7 3.5-4.6 4.6-1.9 1.1-4.2 1.6-6.6 1.6-1.8 0-3.5-.3-5-1.1-1.5-.7-2.8-1.7-3.8-3.1v13.1h-4.6v-34.8h4.4v4.1c1.1-1.4 2.3-2.5 3.8-3.2 1.5-.7 3.3-1.1 5.2-1.1 2.5-.1 4.7.5 6.6 1.7zm-2.5 19.1c1.3-.7 2.3-1.8 3.1-3.2.7-1.4 1.2-2.9 1.2-4.7 0-1.8-.4-3.3-1.2-4.7-.7-1.4-1.8-2.5-3.1-3.2-1.3-.7-2.8-1.1-4.4-1.1-1.6 0-3.1.4-4.4 1.2-1.3.7-2.3 1.8-3.1 3.2-.7 1.4-1.2 2.9-1.2 4.7s.3 3.3 1.1 4.7c.7 1.4 1.8 2.5 3.1 3.2 1.3.7 2.8 1.2 4.4 1.2 1.7-.2 3.1-.5 4.5-1.3zm42.4 3.3c-.6.5-1.5 1.1-2.5 1.3-1 .3-2 .4-3.1.4-2.6 0-4.6-.6-6-2s-2.1-3.3-2.1-5.9v-14h-4.4v-3.8h4.4V144h4.6v5.5h7.2v3.8h-7.2v13.8c0 1.4.3 2.5 1.1 3.2.6.7 1.7 1.1 3 1.1 1.4 0 2.6-.4 3.6-1.2l1.4 3.3zm8.9.2c-2-1.2-3.6-2.7-4.7-4.6-1.2-1.9-1.7-4.2-1.7-6.7s.5-4.7 1.7-6.7c1.2-1.9 2.7-3.5 4.7-4.6 2-1.1 4.3-1.7 6.8-1.7s4.8.5 6.8 1.7c2 1.1 3.5 2.7 4.7 4.6 1.2 1.9 1.7 4.2 1.7 6.7s-.5 4.7-1.7 6.7c-1.2 1.9-2.7 3.5-4.7 4.6-2 1.2-4.3 1.7-6.8 1.7s-4.9-.6-6.8-1.7zm11.2-3.5c1.3-.7 2.3-1.8 3.1-3.2.7-1.4 1.1-2.9 1.1-4.7s-.3-3.3-1.1-4.7c-.7-1.4-1.7-2.5-3.1-3.2-1.3-.7-2.8-1.1-4.4-1.1s-3.1.3-4.4 1.1c-1.3.7-2.3 1.8-3.1 3.2-.7 1.4-1.2 2.9-1.2 4.7s.4 3.3 1.2 4.7c.7 1.4 1.8 2.5 3.1 3.2 1.3.7 2.8 1.2 4.4 1.2s3.1-.4 4.4-1.2zm-74.8 46h4.8l-9.4 26.7h-4.8l9.4-26.7zm20.5 8.5l-6.6 16c-.7 1.9-1.7 3.2-2.9 3.9-1.1.7-2.5 1.2-4.1 1.2-.9 0-1.6-.1-2.5-.4-.9-.2-1.5-.6-2-1l1.9-3.7c.3.3.6.5 1.1.6.4.2.9.2 1.3.2.5 0 1-.1 1.3-.3s.6-.5.9-1l-6.6-15.6h5.5l3.7 9.4 3.8-9.4 5.2.1zm16.5 9h-11.2c.2.7.6 1.4 1.3 1.8.6.4 1.5.6 2.5.6.7 0 1.4-.1 1.9-.3s1.1-.5 1.6-1.1l2.9 3c-1.5 1.7-3.6 2.5-6.5 2.5-1.8 0-3.4-.3-4.7-1.1-1.4-.6-2.5-1.6-3.2-2.9-.7-1.2-1.1-2.6-1.1-4.1 0-1.5.3-2.9 1.1-4.1.7-1.2 1.7-2.1 3-2.8 1.3-.6 2.8-1.1 4.4-1.1 1.5 0 2.9.3 4.2 1 1.3.6 2.2 1.6 3 2.8.7 1.2 1.1 2.7 1.1 4.3-.2.2-.2.7-.3 1.5zm-10.1-4.8c-.5.4-1 1.1-1.1 1.9h6.3c-.1-.9-.5-1.5-1.1-1.9-.5-.4-1.3-.7-2.1-.7-.7.1-1.5.3-2 .7zm24.6-2.7c1.4 1.2 2 3 2 5.3v8.5h-5v-2c-.7 1.5-2.2 2.2-4.5 2.2-1.2 0-2.2-.2-3.1-.6-.9-.4-1.5-1-1.9-1.7-.4-.7-.6-1.5-.6-2.5 0-1.5.5-2.6 1.7-3.4 1.1-.9 2.9-1.2 5.1-1.2h3.1c-.1-1.6-1.2-2.5-3.3-2.5-.7 0-1.5.1-2.2.3-.7.2-1.4.5-1.9 1L659 226c.9-.5 1.9-1 3.1-1.3 1.2-.3 2.5-.4 3.6-.4 2.6.1 4.5.7 5.8 1.9zm-4.4 10.2c.4-.3.9-.7 1.1-1.3v-1.3h-2.3c-1.6 0-2.3.5-2.3 1.6 0 .4.2.9.5 1.2s.9.4 1.5.4c.6-.1 1.1-.3 1.5-.6zm17.1-11.4c.9-.3 1.9-.5 3-.5v4.8c-.5-.1-.9-.1-1.2-.1-1.2 0-2 .3-2.7 1-.6.6-1 1.6-1 2.9v7H677v-15.4h5.1v1.8c.5-.7 1.2-1.2 2.1-1.5zm16.1-5l5.7 3.2-1.5 2.8-5.7-3.4v6.6H696v-6.6l-5.7 3.4-1.5-2.8 5.7-3.2-5.7-3.2 1.5-2.8 5.7 3.4v-6.5h2.8v6.5l5.7-3.4 1.5 2.8-5.7 3.2zm-225.4 18.2c-2.5 2.6-6.2 4.2-11 4.9v7.1h-7.6v-6.8c-3.2-.2-6.2-.8-9-1.6-2.8-.9-5.2-1.9-7-3.2l4.1-9.3c2 1.3 4.3 2.4 6.9 3.2 2.6.8 5.2 1.2 7.7 1.2 4.8 0 7.2-1.2 7.2-3.6 0-1.3-.7-2.2-2.1-2.8-1.4-.6-3.6-1.3-6.6-1.9-3.3-.7-6.1-1.5-8.4-2.3-2.2-.8-4.2-2.1-5.8-4-1.6-1.8-2.4-4.3-2.4-7.4 0-3.6 1.3-6.8 3.9-9.4 2.6-2.6 6.4-4.2 11.4-4.8v-7h7.6v6.9c2.4.2 4.7.6 7 1.3 2.2.6 4.2 1.5 5.9 2.5l-3.9 9.3c-4.2-2.3-8.3-3.4-12.3-3.4-2.5 0-4.3.4-5.5 1.1-1.1.7-1.7 1.7-1.7 2.9s.7 2.1 2 2.7c1.4.6 3.5 1.2 6.5 1.8 3.4.7 6.2 1.5 8.4 2.3 2.2.8 4.1 2.1 5.8 3.9 1.6 1.8 2.4 4.2 2.4 7.3.2 3.5-1 6.5-3.5 9.1zm42.7-40.2v7.9l-15.7 36.6h-13.7l15-34.5h-11.7v6.9h-10.7V198h36.8zm41.8 36h-6.6v8.5h-12.3V234H517v-8.2l20-27.8h13l-18.1 26h9v-7.6h11.9v7.6h6.6v10zm44.4 0h-6.6v8.5H585V234h-23.5v-8.2l19.9-27.8h13l-18.1 26h9v-7.6h11.9v7.6h6.6v10z" fill="#0d1c44"/></svg>